<?xml version="1.0" encoding="utf-8"?>
<!-- created with bpmn-js / http://bpmn.io -->
<!DOCTYPE svg PUBLIC "-//W3C//DTD SVG 1.1//EN" "http://www.w3.org/Graphics/SVG/1.1/DTD/svg11.dtd">
<svg xmlns="http://www.w3.org/2000/svg" xmlns:xlink="http://www.w3.org/1999/xlink" width="1569" height="389" viewBox="151 -115 1569 389" version="1.1"><defs><pattern id="djs-grid-pattern-210630" width="10" height="10" patternUnits="userSpaceOnUse"><circle cx="0.5" cy="0.5" r="0.5" style="fill: rgb(204, 204, 204);"/></pattern></defs><g class="djs-group"><g class="djs-element djs-shape" data-element-id="StartEvent_09b8lt9" style="display: block;" transform="matrix(1 0 0 1 156 82)"><g class="djs-visual"><circle cx="18" cy="18" r="18" style="stroke-linecap: round; stroke-linejoin: round; stroke: rgb(34, 36, 42); stroke-width: 2px; fill: white; fill-opacity: 0.95;"/></g><rect class="djs-hit djs-hit-all" x="0" y="0" width="36" height="36" style="fill: none; stroke-opacity: 0; stroke: white; stroke-width: 15px;"/><circle cx="18" cy="18" r="23" class="djs-outline" style="fill: none;"/></g></g><g class="djs-group"><g class="djs-element djs-shape" data-element-id="Gateway_08c38qu" style="display: block;" transform="matrix(1 0 0 1 1075 75)"><g class="djs-visual"><polygon points="25,0 50,25 25,50 0,25" style="stroke-linecap: round; stroke-linejoin: round; stroke: rgb(91, 23, 109); stroke-width: 2px; fill: rgb(225, 190, 231); fill-opacity: 0.95;"/><path d="m 16,15 7.42857142857143,9.714285714285715 -7.42857142857143,9.714285714285715 3.428571428571429,0 5.714285714285715,-7.464228571428572 5.714285714285715,7.464228571428572 3.428571428571429,0 -7.42857142857143,-9.714285714285715 7.42857142857143,-9.714285714285715 -3.428571428571429,0 -5.714285714285715,7.464228571428572 -5.714285714285715,-7.464228571428572 -3.428571428571429,0 z" style="fill: rgb(91, 23, 109); stroke-linecap: round; stroke-linejoin: round; stroke: rgb(91, 23, 109); stroke-width: 1px;"/></g><rect class="djs-hit djs-hit-all" x="0" y="0" width="50" height="50" style="fill: none; stroke-opacity: 0; stroke: white; stroke-width: 15px;"/><rect x="2" y="2" rx="4" width="46" height="46" class="djs-outline" style="transform-box: fill-box; transform: rotate(45deg); transform-origin: center center; fill: none;"/></g></g><g class="djs-group"><g class="djs-element djs-shape" data-element-id="Activity_0jjwrj3" style="display: block;" transform="matrix(1 0 0 1 270 40)"><g class="djs-visual"><rect x="0" y="0" width="140" height="120" rx="10" ry="10" style="stroke-linecap: round; stroke-linejoin: round; stroke: rgb(34, 36, 42); stroke-width: 2px; fill: white; fill-opacity: 0.95;"/><text lineHeight="1.2" class="djs-label" style="font-family: Arial, sans-serif; font-size: 12px; font-weight: normal; fill: rgb(34, 36, 42);"><tspan x="38.64999961853027" y="17.799999999999997">Start Event:</tspan><tspan x="9.14511489868164" y="32.199999999999996">  The process begins o</tspan><tspan x="20.299999237060547" y="46.599999999999994">nce load data from </tspan><tspan x="14.106639862060547" y="60.99999999999999">slabs and columns is </tspan><tspan x="46.05331993103027" y="75.39999999999999">available</tspan></text></g><rect x="-5" y="-5" rx="14" width="150" height="130" class="djs-outline" style="fill: none;"/><rect class="djs-hit djs-hit-no-move" x="0" y="0" width="140" height="120" style="fill: none; stroke-opacity: 0; stroke: white; stroke-width: 15px;"/><rect class="djs-hit djs-hit-click-stroke" x="0" y="0" width="140" height="120" style="fill: none; stroke-opacity: 0; stroke: white; stroke-width: 15px;"/><rect class="djs-hit djs-hit-all" x="0" y="0" width="140" height="30" style="fill: none; stroke-opacity: 0; stroke: white; stroke-width: 15px;"/></g><g class="djs-children"/></g><g class="djs-group"><g class="djs-element djs-shape" data-element-id="Activity_1ntwjdr" style="display: block;" transform="matrix(1 0 0 1 510 40)"><g class="djs-visual"><rect x="0" y="0" width="145" height="120" rx="10" ry="10" style="stroke-linecap: round; stroke-linejoin: round; stroke: rgb(34, 36, 42); stroke-width: 2px; fill: white; fill-opacity: 0.95;"/><text lineHeight="1.2" class="djs-label" style="font-family: Arial, sans-serif; font-size: 12px; font-weight: normal; fill: rgb(34, 36, 42);"><tspan x="22.131248474121094" y="17.799999999999997">Calculate Slab and </tspan><tspan x="32.13750076293945" y="32.199999999999996">Column Loads:</tspan><tspan x="11.46875" y="46.599999999999994">The script gathers load </tspan><tspan x="22.609569549560547" y="60.99999999999999">data from previous </tspan><tspan x="17.078514099121094" y="75.39999999999999">structural analysis or </tspan><tspan x="24.481250762939453" y="89.79999999999998">simulation results.</tspan></text></g><rect x="-5" y="-5" rx="14" width="155" height="130" class="djs-outline" style="fill: none;"/><rect class="djs-hit djs-hit-no-move" x="0" y="0" width="145" height="120" style="fill: none; stroke-opacity: 0; stroke: white; stroke-width: 15px;"/><rect class="djs-hit djs-hit-click-stroke" x="0" y="0" width="145" height="120" style="fill: none; stroke-opacity: 0; stroke: white; stroke-width: 15px;"/><rect class="djs-hit djs-hit-all" x="0" y="0" width="145" height="30" style="fill: none; stroke-opacity: 0; stroke: white; stroke-width: 15px;"/></g><g class="djs-children"/></g><g class="djs-group"><g class="djs-element djs-shape" data-element-id="Activity_0j2ruix" style="display: block;" transform="matrix(1 0 0 1 780 35)"><g class="djs-visual"><rect x="0" y="0" width="205" height="130" rx="10" ry="10" style="stroke-linecap: round; stroke-linejoin: round; stroke: rgb(34, 36, 42); stroke-width: 2px; fill: white; fill-opacity: 0.95;"/><text lineHeight="1.2" class="djs-label" style="font-family: Arial, sans-serif; font-size: 12px; font-weight: normal; fill: rgb(34, 36, 42);"><tspan x="24.866798400878906" y="17.799999999999997">Calculate Column Capacity – </tspan><tspan x="11.118751525878906" y="32.199999999999996">Python scripts, using IfcOpenShell </tspan><tspan x="11.775001525878906" y="46.599999999999994">or other tools, compute the design </tspan><tspan x="66.28242111206055" y="60.99999999999999">axial capacity</tspan><tspan x="90.49374961853027" y="75.39999999999999">NRd</tspan><tspan x="9.7763671875" y="89.79999999999998"> for each column based on geomet</tspan><tspan x="7.9013671875" y="104.19999999999999">ry, material data, and reinforcement </tspan><tspan x="83.48749923706055" y="118.6">details.</tspan></text></g><rect x="-5" y="-5" rx="14" width="215" height="140" class="djs-outline" style="fill: none;"/><rect class="djs-hit djs-hit-no-move" x="0" y="0" width="205" height="130" style="fill: none; stroke-opacity: 0; stroke: white; stroke-width: 15px;"/><rect class="djs-hit djs-hit-click-stroke" x="0" y="0" width="205" height="130" style="fill: none; stroke-opacity: 0; stroke: white; stroke-width: 15px;"/><rect class="djs-hit djs-hit-all" x="0" y="0" width="205" height="30" style="fill: none; stroke-opacity: 0; stroke: white; stroke-width: 15px;"/></g><g class="djs-children"/></g><g class="djs-group"><g class="djs-element djs-connection" data-element-id="Association_1jjfolh" style="display: block;"><g class="djs-visual"><path data-corner-radius="5" style="fill: none; stroke-linecap: round; stroke-linejoin: round; stroke: rgb(34, 36, 42); stroke-width: 2px; stroke-dasharray: 0, 5;" d="M1100,125L1100,180"/></g><path d="M1100,125L1100,180" class="djs-hit djs-hit-stroke" style="fill: none; stroke-opacity: 0; stroke: white; stroke-width: 15px;"/><rect x="1095" y="120" rx="4" width="10" height="65" class="djs-outline" style="fill: none;"/></g></g><g class="djs-group"><g class="djs-element djs-shape" data-element-id="Activity_0axoawz" style="display: block;" transform="matrix(1 0 0 1 1022 -110)"><g class="djs-visual"><rect x="0" y="0" width="155" height="120" rx="10" ry="10" style="stroke-linecap: round; stroke-linejoin: round; stroke: rgb(34, 36, 42); stroke-width: 2px; fill: white; fill-opacity: 0.95;"/><text lineHeight="1.2" class="djs-label" style="font-family: Arial, sans-serif; font-size: 12px; font-weight: normal; fill: rgb(34, 36, 42);"><tspan x="15.278514862060547" y="17.799999999999997">No → Process requires </tspan><tspan x="20.279491424560547" y="32.199999999999996">revision. If capacity is </tspan><tspan x="16.927928924560547" y="46.599999999999994">exceeded, the process </tspan><tspan x="26.86972427368164" y="60.99999999999999">stops and flags the </tspan><tspan x="23.074607849121094" y="75.39999999999999">relevant columns for </tspan><tspan x="8.131248474121094" y="89.79999999999998">redesign or further review.</tspan></text></g><rect x="-5" y="-5" rx="14" width="165" height="130" class="djs-outline" style="fill: none;"/><rect class="djs-hit djs-hit-no-move" x="0" y="0" width="155" height="120" style="fill: none; stroke-opacity: 0; stroke: white; stroke-width: 15px;"/><rect class="djs-hit djs-hit-click-stroke" x="0" y="0" width="155" height="120" style="fill: none; stroke-opacity: 0; stroke: white; stroke-width: 15px;"/><rect class="djs-hit djs-hit-all" x="0" y="0" width="155" height="30" style="fill: none; stroke-opacity: 0; stroke: white; stroke-width: 15px;"/></g><g class="djs-children"/></g><g class="djs-group"><g class="djs-element djs-shape" data-element-id="Activity_0ifdfgt" style="display: block;" transform="matrix(1 0 0 1 1290 40)"><g class="djs-visual"><rect x="0" y="0" width="170" height="120" rx="10" ry="10" style="stroke-linecap: round; stroke-linejoin: round; stroke: rgb(34, 36, 42); stroke-width: 2px; fill: white; fill-opacity: 0.95;"/><text lineHeight="1.2" class="djs-label" style="font-family: Arial, sans-serif; font-size: 12px; font-weight: normal; fill: rgb(34, 36, 42);"><tspan x="15.243748486042023" y="17.799999999999997">Yes → Generate Report in </tspan><tspan x="26.771678924560547" y="32.199999999999996">Python. If utilization is </tspan><tspan x="27.96875" y="46.599999999999994">acceptable, the script </tspan><tspan x="17.708595275878906" y="60.99999999999999">compiles all results into a </tspan><tspan x="17.36250001192093" y="75.39999999999999">formatted report including </tspan><tspan x="11.631248474121094" y="89.79999999999998">column IDs, capacities, and </tspan><tspan x="38.64374923706055" y="104.19999999999999">utilization factors.</tspan></text></g><rect x="-5" y="-5" rx="14" width="180" height="130" class="djs-outline" style="fill: none;"/><rect class="djs-hit djs-hit-no-move" x="0" y="0" width="170" height="120" style="fill: none; stroke-opacity: 0; stroke: white; stroke-width: 15px;"/><rect class="djs-hit djs-hit-click-stroke" x="0" y="0" width="170" height="120" style="fill: none; stroke-opacity: 0; stroke: white; stroke-width: 15px;"/><rect class="djs-hit djs-hit-all" x="0" y="0" width="170" height="30" style="fill: none; stroke-opacity: 0; stroke: white; stroke-width: 15px;"/></g><g class="djs-children"/></g><g class="djs-group"><g class="djs-element djs-shape" data-element-id="Activity_09itp6b" style="display: block;" transform="matrix(1 0 0 1 1570 40)"><g class="djs-visual"><rect x="0" y="0" width="145" height="120" rx="10" ry="10" style="stroke-linecap: round; stroke-linejoin: round; stroke: rgb(34, 36, 42); stroke-width: 2px; fill: white; fill-opacity: 0.95;"/><text lineHeight="1.2" class="djs-label" style="font-family: Arial, sans-serif; font-size: 12px; font-weight: normal; fill: rgb(34, 36, 42);"><tspan x="27.64999771118164" y="17.799999999999997">End Event – The </tspan><tspan x="22.278514862060547" y="32.199999999999996">process completes </tspan><tspan x="16.27558594942093" y="46.599999999999994">when all columns are </tspan><tspan x="7.119140625" y="60.99999999999999">evaluated and the report</tspan><tspan x="37.80624771118164" y="75.39999999999999">is generated.</tspan></text></g><rect x="-5" y="-5" rx="14" width="155" height="130" class="djs-outline" style="fill: none;"/><rect class="djs-hit djs-hit-no-move" x="0" y="0" width="145" height="120" style="fill: none; stroke-opacity: 0; stroke: white; stroke-width: 15px;"/><rect class="djs-hit djs-hit-click-stroke" x="0" y="0" width="145" height="120" style="fill: none; stroke-opacity: 0; stroke: white; stroke-width: 15px;"/><rect class="djs-hit djs-hit-all" x="0" y="0" width="145" height="30" style="fill: none; stroke-opacity: 0; stroke: white; stroke-width: 15px;"/></g><g class="djs-children"/></g><g class="djs-group"><g class="djs-element djs-connection" data-element-id="Flow_01b69o7" style="display: block;"><g class="djs-visual"><defs><marker id="marker-eiyzv938xwn3jf6ulhrw7iwmp" viewBox="0 0 20 20" refX="11" refY="10" markerWidth="10" markerHeight="10" orient="auto"><path d="M 1 5 L 11 10 L 1 15 Z" style="stroke-linecap: round; stroke-linejoin: round; stroke: rgb(34, 36, 42); stroke-width: 1px; fill: rgb(34, 36, 42);"/></marker></defs><path data-corner-radius="5" style="fill: none; stroke-linecap: round; stroke-linejoin: round; stroke: rgb(34, 36, 42); stroke-width: 2px; marker-end: url('#marker-eiyzv938xwn3jf6ulhrw7iwmp');" d="M192,100L270,100"/></g><path d="M192,100L270,100" class="djs-hit djs-hit-stroke" style="fill: none; stroke-opacity: 0; stroke: white; stroke-width: 15px;"/><rect x="187" y="95" rx="4" width="88" height="10" class="djs-outline" style="fill: none;"/></g></g><g class="djs-group"><g class="djs-element djs-connection" data-element-id="Flow_16owx5p" style="display: block;"><g class="djs-visual"><defs><marker id="marker-4sbyypc225y9nzbam1y98eqzg" viewBox="0 0 20 20" refX="11" refY="10" markerWidth="10" markerHeight="10" orient="auto"><path d="M 1 5 L 11 10 L 1 15 Z" style="stroke-linecap: round; stroke-linejoin: round; stroke: rgb(34, 36, 42); stroke-width: 1px; fill: rgb(34, 36, 42);"/></marker></defs><path data-corner-radius="5" style="fill: none; stroke-linecap: round; stroke-linejoin: round; stroke: rgb(34, 36, 42); stroke-width: 2px; marker-end: url('#marker-4sbyypc225y9nzbam1y98eqzg');" d="M410,100L510,100"/></g><path d="M410,100L510,100" class="djs-hit djs-hit-stroke" style="fill: none; stroke-opacity: 0; stroke: white; stroke-width: 15px;"/><rect x="405" y="95" rx="4" width="110" height="10" class="djs-outline" style="fill: none;"/></g></g><g class="djs-group"><g class="djs-element djs-connection" data-element-id="Flow_1qrhe3o" style="display: block;"><g class="djs-visual"><defs><marker id="marker-10mh4nlhwlhcnshc61lh0xho1" viewBox="0 0 20 20" refX="11" refY="10" markerWidth="10" markerHeight="10" orient="auto"><path d="M 1 5 L 11 10 L 1 15 Z" style="stroke-linecap: round; stroke-linejoin: round; stroke: rgb(34, 36, 42); stroke-width: 1px; fill: rgb(34, 36, 42);"/></marker></defs><path data-corner-radius="5" style="fill: none; stroke-linecap: round; stroke-linejoin: round; stroke: rgb(34, 36, 42); stroke-width: 2px; marker-end: url('#marker-10mh4nlhwlhcnshc61lh0xho1');" d="M655,100L780,100"/></g><path d="M655,100L780,100" class="djs-hit djs-hit-stroke" style="fill: none; stroke-opacity: 0; stroke: white; stroke-width: 15px;"/><rect x="650" y="95" rx="4" width="135" height="10" class="djs-outline" style="fill: none;"/></g></g><g class="djs-group"><g class="djs-element djs-connection" data-element-id="Flow_0urgzv9" style="display: block;"><g class="djs-visual"><defs><marker id="marker-5sgxyw8qj1920oy44kri51r3u" viewBox="0 0 20 20" refX="11" refY="10" markerWidth="10" markerHeight="10" orient="auto"><path d="M 1 5 L 11 10 L 1 15 Z" style="stroke-linecap: round; stroke-linejoin: round; stroke: rgb(34, 36, 42); stroke-width: 1px; fill: rgb(34, 36, 42);"/></marker></defs><path data-corner-radius="5" style="fill: none; stroke-linecap: round; stroke-linejoin: round; stroke: rgb(34, 36, 42); stroke-width: 2px; marker-end: url('#marker-5sgxyw8qj1920oy44kri51r3u');" d="M985,100L1075,100"/></g><path d="M985,100L1075,100" class="djs-hit djs-hit-stroke" style="fill: none; stroke-opacity: 0; stroke: white; stroke-width: 15px;"/><rect x="980" y="95" rx="4" width="100" height="10" class="djs-outline" style="fill: none;"/></g></g><g class="djs-group"><g class="djs-element djs-shape" data-element-id="TextAnnotation_0dmdx60" style="display: block;" transform="matrix(1 0 0 1 1050 180)"><g class="djs-visual"><rect x="0" y="0" width="228" height="89" rx="0" ry="0" style="stroke-linecap: round; stroke-linejoin: round; stroke: none; stroke-width: 2px; fill: none;"/><path d="m 0, 0 m 10,0 l -10,0 l 0,89 l 10,0" style="fill: none; stroke-linecap: round; stroke-linejoin: round; stroke: rgb(34, 36, 42); stroke-width: 2px;"/><text lineHeight="1.2" class="djs-label" style="font-family: Arial, sans-serif; font-size: 12px; font-weight: normal; fill: rgb(34, 36, 42);"><tspan x="7" y="17.799999999999997">Decision: Capacity Utilization OK? The </tspan><tspan x="7" y="32.199999999999996">process evaluates whether the </tspan><tspan x="7" y="46.599999999999994">calculated load/utilization ratio for each</tspan><tspan x="7" y="60.99999999999999">column is within acceptable limits.</tspan></text></g><rect class="djs-hit djs-hit-all" x="0" y="0" width="228" height="89" style="fill: none; stroke-opacity: 0; stroke: white; stroke-width: 15px;"/><rect x="-5" y="-5" rx="4" width="238" height="99" class="djs-outline" style="fill: none;"/></g></g><g class="djs-group"><g class="djs-element djs-connection" data-element-id="Flow_0vwa8n1" style="display: block;"><g class="djs-visual"><defs><marker id="marker-0wz71c5cvcxyfjrnhdmin053u" viewBox="0 0 20 20" refX="11" refY="10" markerWidth="10" markerHeight="10" orient="auto"><path d="M 1 5 L 11 10 L 1 15 Z" style="stroke-linecap: round; stroke-linejoin: round; stroke: rgb(34, 36, 42); stroke-width: 1px; fill: rgb(34, 36, 42);"/></marker></defs><path data-corner-radius="5" style="fill: none; stroke-linecap: round; stroke-linejoin: round; stroke: rgb(34, 36, 42); stroke-width: 2px; marker-end: url('#marker-0wz71c5cvcxyfjrnhdmin053u');" d="M1100,75L1100,10"/></g><path d="M1100,75L1100,10" class="djs-hit djs-hit-stroke" style="fill: none; stroke-opacity: 0; stroke: white; stroke-width: 15px;"/><rect x="1095" y="5" rx="4" width="10" height="75" class="djs-outline" style="fill: none;"/></g></g><g class="djs-group"><g class="djs-element djs-connection" data-element-id="Flow_0hyczk7" style="display: block;"><g class="djs-visual"><defs><marker id="marker-38ahhcv19f5es0bmwfq9ttv3l" viewBox="0 0 20 20" refX="11" refY="10" markerWidth="10" markerHeight="10" orient="auto"><path d="M 1 5 L 11 10 L 1 15 Z" style="stroke-linecap: round; stroke-linejoin: round; stroke: rgb(34, 36, 42); stroke-width: 1px; fill: rgb(34, 36, 42);"/></marker></defs><path data-corner-radius="5" style="fill: none; stroke-linecap: round; stroke-linejoin: round; stroke: rgb(34, 36, 42); stroke-width: 2px; marker-end: url('#marker-38ahhcv19f5es0bmwfq9ttv3l');" d="M1125,100L1290,100"/></g><path d="M1125,100L1290,100" class="djs-hit djs-hit-stroke" style="fill: none; stroke-opacity: 0; stroke: white; stroke-width: 15px;"/><rect x="1120" y="95" rx="4" width="175" height="10" class="djs-outline" style="fill: none;"/></g></g><g class="djs-group"><g class="djs-element djs-connection" data-element-id="Flow_0hqzdzb" style="display: block;"><g class="djs-visual"><defs><marker id="marker-0c3lis2r3qy0jfyqee66cq3l4" viewBox="0 0 20 20" refX="11" refY="10" markerWidth="10" markerHeight="10" orient="auto"><path d="M 1 5 L 11 10 L 1 15 Z" style="stroke-linecap: round; stroke-linejoin: round; stroke: rgb(34, 36, 42); stroke-width: 1px; fill: rgb(34, 36, 42);"/></marker></defs><path data-corner-radius="5" style="fill: none; stroke-linecap: round; stroke-linejoin: round; stroke: rgb(34, 36, 42); stroke-width: 2px; marker-end: url('#marker-0c3lis2r3qy0jfyqee66cq3l4');" d="M1460,100L1570,100"/></g><path d="M1460,100L1570,100" class="djs-hit djs-hit-stroke" style="fill: none; stroke-opacity: 0; stroke: white; stroke-width: 15px;"/><rect x="1455" y="95" rx="4" width="120" height="10" class="djs-outline" style="fill: none;"/></g></g></svg>